<svg width="218" height="30" viewBox="0 0 218 30" fill="none" xmlns="http://www.w3.org/2000/svg">
<path d="M14.76 29.28C12.12 29.28 9.69333 28.6667 7.48 27.44C5.29333 26.2133 3.54667 24.5067 2.24 22.32C0.96 20.1067 0.32 17.6267 0.32 14.88C0.32 12.1333 0.96 9.66667 2.24 7.48C3.54667 5.29333 5.29333 3.58667 7.48 2.36C9.69333 1.13333 12.12 0.52 14.76 0.52C17.4 0.52 19.8133 1.13333 22 2.36C24.2133 3.58667 25.9467 5.29333 27.2 7.48C28.48 9.66667 29.12 12.1333 29.12 14.88C29.12 17.6267 28.48 20.1067 27.2 22.32C25.92 24.5067 24.1867 26.2133 22 27.44C19.8133 28.6667 17.4 29.28 14.76 29.28ZM14.76 23.04C17 23.04 18.7867 22.2933 20.12 20.8C21.48 19.3067 22.16 17.3333 22.16 14.88C22.16 12.4 21.48 10.4267 20.12 8.96C18.7867 7.46666 17 6.72 14.76 6.72C12.4933 6.72 10.68 7.45333 9.32 8.92C7.98667 10.3867 7.32 12.3733 7.32 14.88C7.32 17.36 7.98667 19.3467 9.32 20.84C10.68 22.3067 12.4933 23.04 14.76 23.04ZM42.9653 22.6L47.8053 6.68H55.0853L47.1653 29H38.7253L30.8053 6.68H38.1253L42.9653 22.6ZM79.0044 17.48C79.0044 18.12 78.9644 18.7867 78.8844 19.48H63.4044C63.511 20.8667 63.951 21.9333 64.7244 22.68C65.5244 23.4 66.4977 23.76 67.6444 23.76C69.351 23.76 70.5377 23.04 71.2044 21.6H78.4844C78.111 23.0667 77.431 24.3867 76.4444 25.56C75.4844 26.7333 74.271 27.6533 72.8044 28.32C71.3377 28.9867 69.6977 29.32 67.8844 29.32C65.6977 29.32 63.751 28.8533 62.0444 27.92C60.3377 26.9867 59.0044 25.6533 58.0444 23.92C57.0844 22.1867 56.6044 20.16 56.6044 17.84C56.6044 15.52 57.071 13.4933 58.0044 11.76C58.9644 10.0267 60.2977 8.69333 62.0044 7.76C63.711 6.82667 65.671 6.36 67.8844 6.36C70.0444 6.36 71.9644 6.81333 73.6444 7.72C75.3244 8.62667 76.631 9.92 77.5644 11.6C78.5244 13.28 79.0044 15.24 79.0044 17.48ZM72.0044 15.68C72.0044 14.5067 71.6044 13.5733 70.8044 12.88C70.0044 12.1867 69.0044 11.84 67.8044 11.84C66.6577 11.84 65.6844 12.1733 64.8844 12.84C64.111 13.5067 63.631 14.4533 63.4444 15.68H72.0044ZM89.4528 10.4C90.2528 9.17333 91.2528 8.21333 92.4528 7.52C93.6528 6.8 94.9861 6.44 96.4528 6.44V13.68H94.5728C92.8661 13.68 91.5861 14.0533 90.7328 14.8C89.8795 15.52 89.4528 16.8 89.4528 18.64V29H82.6128V6.68H89.4528V10.4ZM108.802 29.32C106.856 29.32 105.122 28.9867 103.602 28.32C102.082 27.6533 100.882 26.7467 100.002 25.6C99.1222 24.4267 98.6289 23.12 98.5222 21.68H105.282C105.362 22.4533 105.722 23.08 106.362 23.56C107.002 24.04 107.789 24.28 108.722 24.28C109.576 24.28 110.229 24.12 110.682 23.8C111.162 23.4533 111.402 23.0133 111.402 22.48C111.402 21.84 111.069 21.3733 110.402 21.08C109.736 20.76 108.656 20.4133 107.162 20.04C105.562 19.6667 104.229 19.28 103.162 18.88C102.096 18.4533 101.176 17.8 100.402 16.92C99.6289 16.0133 99.2422 14.8 99.2422 13.28C99.2422 12 99.5889 10.84 100.282 9.8C101.002 8.73333 102.042 7.89333 103.402 7.28C104.789 6.66666 106.429 6.36 108.322 6.36C111.122 6.36 113.322 7.05333 114.922 8.44C116.549 9.82667 117.482 11.6667 117.722 13.96H111.402C111.296 13.1867 110.949 12.5733 110.362 12.12C109.802 11.6667 109.056 11.44 108.122 11.44C107.322 11.44 106.709 11.6 106.282 11.92C105.856 12.2133 105.642 12.6267 105.642 13.16C105.642 13.8 105.976 14.28 106.642 14.6C107.336 14.92 108.402 15.24 109.842 15.56C111.496 15.9867 112.842 16.4133 113.882 16.84C114.922 17.24 115.829 17.9067 116.602 18.84C117.402 19.7467 117.816 20.9733 117.842 22.52C117.842 23.8267 117.469 25 116.722 26.04C116.002 27.0533 114.949 27.8533 113.562 28.44C112.202 29.0267 110.616 29.32 108.802 29.32ZM143.067 17.48C143.067 18.12 143.027 18.7867 142.947 19.48H127.467C127.574 20.8667 128.014 21.9333 128.787 22.68C129.587 23.4 130.56 23.76 131.707 23.76C133.414 23.76 134.6 23.04 135.267 21.6H142.547C142.174 23.0667 141.494 24.3867 140.507 25.56C139.547 26.7333 138.334 27.6533 136.867 28.32C135.4 28.9867 133.76 29.32 131.947 29.32C129.76 29.32 127.814 28.8533 126.107 27.92C124.4 26.9867 123.067 25.6533 122.107 23.92C121.147 22.1867 120.667 20.16 120.667 17.84C120.667 15.52 121.134 13.4933 122.067 11.76C123.027 10.0267 124.36 8.69333 126.067 7.76C127.774 6.82667 129.734 6.36 131.947 6.36C134.107 6.36 136.027 6.81333 137.707 7.72C139.387 8.62667 140.694 9.92 141.627 11.6C142.587 13.28 143.067 15.24 143.067 17.48ZM136.067 15.68C136.067 14.5067 135.667 13.5733 134.867 12.88C134.067 12.1867 133.067 11.84 131.867 11.84C130.72 11.84 129.747 12.1733 128.947 12.84C128.174 13.5067 127.694 14.4533 127.507 15.68H136.067ZM167.715 17.48C167.715 18.12 167.675 18.7867 167.595 19.48H152.115C152.222 20.8667 152.662 21.9333 153.435 22.68C154.235 23.4 155.209 23.76 156.355 23.76C158.062 23.76 159.249 23.04 159.915 21.6H167.195C166.822 23.0667 166.142 24.3867 165.155 25.56C164.195 26.7333 162.982 27.6533 161.515 28.32C160.049 28.9867 158.409 29.32 156.595 29.32C154.409 29.32 152.462 28.8533 150.755 27.92C149.049 26.9867 147.715 25.6533 146.755 23.92C145.795 22.1867 145.315 20.16 145.315 17.84C145.315 15.52 145.782 13.4933 146.715 11.76C147.675 10.0267 149.009 8.69333 150.715 7.76C152.422 6.82667 154.382 6.36 156.595 6.36C158.755 6.36 160.675 6.81333 162.355 7.72C164.035 8.62667 165.342 9.92 166.275 11.6C167.235 13.28 167.715 15.24 167.715 17.48ZM160.715 15.68C160.715 14.5067 160.315 13.5733 159.515 12.88C158.715 12.1867 157.715 11.84 156.515 11.84C155.369 11.84 154.395 12.1733 153.595 12.84C152.822 13.5067 152.342 14.4533 152.155 15.68H160.715ZM178.164 10.4C178.964 9.17333 179.964 8.21333 181.164 7.52C182.364 6.8 183.697 6.44 185.164 6.44V13.68H183.284C181.577 13.68 180.297 14.0533 179.444 14.8C178.59 15.52 178.164 16.8 178.164 18.64V29H171.324V6.68H178.164V10.4ZM197.513 29.32C195.566 29.32 193.833 28.9867 192.313 28.32C190.793 27.6533 189.593 26.7467 188.713 25.6C187.833 24.4267 187.34 23.12 187.233 21.68H193.993C194.073 22.4533 194.433 23.08 195.073 23.56C195.713 24.04 196.5 24.28 197.433 24.28C198.286 24.28 198.94 24.12 199.393 23.8C199.873 23.4533 200.113 23.0133 200.113 22.48C200.113 21.84 199.78 21.3733 199.113 21.08C198.446 20.76 197.366 20.4133 195.873 20.04C194.273 19.6667 192.94 19.28 191.873 18.88C190.806 18.4533 189.886 17.8 189.113 16.92C188.34 16.0133 187.953 14.8 187.953 13.28C187.953 12 188.3 10.84 188.993 9.8C189.713 8.73333 190.753 7.89333 192.113 7.28C193.5 6.66666 195.14 6.36 197.033 6.36C199.833 6.36 202.033 7.05333 203.633 8.44C205.26 9.82667 206.193 11.6667 206.433 13.96H200.113C200.006 13.1867 199.66 12.5733 199.073 12.12C198.513 11.6667 197.766 11.44 196.833 11.44C196.033 11.44 195.42 11.6 194.993 11.92C194.566 12.2133 194.353 12.6267 194.353 13.16C194.353 13.8 194.686 14.28 195.353 14.6C196.046 14.92 197.113 15.24 198.553 15.56C200.206 15.9867 201.553 16.4133 202.593 16.84C203.633 17.24 204.54 17.9067 205.313 18.84C206.113 19.7467 206.526 20.9733 206.553 22.52C206.553 23.8267 206.18 25 205.433 26.04C204.713 27.0533 203.66 27.8533 202.273 28.44C200.913 29.0267 199.326 29.32 197.513 29.32ZM213.938 29.32C212.738 29.32 211.751 28.9733 210.978 28.28C210.231 27.56 209.858 26.68 209.858 25.64C209.858 24.5733 210.231 23.68 210.978 22.96C211.751 22.24 212.738 21.88 213.938 21.88C215.111 21.88 216.071 22.24 216.818 22.96C217.591 23.68 217.978 24.5733 217.978 25.64C217.978 26.68 217.591 27.56 216.818 28.28C216.071 28.9733 215.111 29.32 213.938 29.32Z" fill="white"/>
</svg>
